<svg xmlns="http://www.w3.org/2000/svg" viewBox="0 0 500 500"><g id="freepik--Shadow--inject-362"><ellipse cx="250" cy="416.24" rx="193.89" ry="11.32" style="fill:#f5f5f5"/></g><g id="freepik--Tabs--inject-362"><path d="M313,109.94h-53.3a9.35,9.35,0,0,0-8.7,5.93l-4.75,12h80.21l-4.75-12A9.35,9.35,0,0,0,313,109.94Z" style="fill:#407BFF"/><path d="M313,109.94h-53.3a9.35,9.35,0,0,0-8.7,5.93l-4.75,12h80.21l-4.75-12A9.35,9.35,0,0,0,313,109.94Z" style="fill:#fff;opacity:0.4"/><path d="M161.68,109.94h-53.3a9.36,9.36,0,0,0-8.71,5.93l-4.75,12h80.22l-4.75-12A9.36,9.36,0,0,0,161.68,109.94Z" style="fill:#407BFF"/><path d="M161.68,109.94h-53.3a9.36,9.36,0,0,0-8.71,5.93l-4.75,12h80.22l-4.75-12A9.36,9.36,0,0,0,161.68,109.94Z" style="opacity:0.2"/><path d="M406.73,126.55H250.28l-4.22-10.68a9.37,9.37,0,0,0-8.71-5.93h-53.3a9.35,9.35,0,0,0-8.71,5.93l-4.22,10.68H93.27a11,11,0,0,0-10.94,10.94V346.21a11,11,0,0,0,10.94,10.94H406.73a11,11,0,0,0,10.94-10.94V137.49A11,11,0,0,0,406.73,126.55Z" style="fill:#407BFF"/><rect x="152.1" y="91.58" width="195.8" height="321.33" rx="3.73" transform="translate(502.25 2.25) rotate(90)" style="fill:#fff"/><rect x="199.79" y="206.13" width="53.67" height="15.91" style="fill:#407BFF"/><rect x="262.54" y="206.13" width="37.67" height="15.91" style="fill:#407BFF"/><rect x="78.83" y="194.72" width="1" height="19.37" style="fill:#407BFF"/><rect x="78.83" y="221.44" width="1" height="7.11" style="fill:#407BFF"/><rect x="117.99" y="160.86" width="17.05" height="3.8" style="fill:#407BFF"/><rect x="96.21" y="160.86" width="17.05" height="3.8" style="fill:#407BFF"/><path d="M332.5,266.68h-165V236.32h165Zm-164-1h163V237.32h-163Z" style="fill:#407BFF"/><rect x="173.17" y="243.91" width="1" height="15.19" style="fill:#407BFF"/><rect x="207.22" y="276.35" width="85.56" height="3.8" style="fill:#407BFF"/><path d="M314.08,257.29a7.38,7.38,0,1,1,5.21-12.6h0a7.38,7.38,0,0,1-5.21,12.6Zm0-12.76a5.38,5.38,0,1,0,3.8,1.58A5.38,5.38,0,0,0,314.08,244.53Z" style="fill:#407BFF"/><path d="M323.64,260.47a1,1,0,0,1-.71-.29l-5.05-5.05a1,1,0,0,1,1.42-1.42l5.05,5.06a1,1,0,0,1,0,1.41A1,1,0,0,1,323.64,260.47Z" style="fill:#407BFF"/><path d="M332.5,266.68h-165V236.32h165Zm-164-1h163V237.32h-163Z" style="fill:#fff;opacity:0.6000000000000001"/><rect x="173.17" y="243.91" width="1" height="15.19" style="fill:#fff;opacity:0.6000000000000001"/><rect x="207.22" y="276.35" width="85.56" height="3.8" style="fill:#fff;opacity:0.6000000000000001"/><rect x="117.99" y="160.86" width="17.05" height="3.8" style="fill:#fff;opacity:0.6000000000000001"/><rect x="96.21" y="160.86" width="17.05" height="3.8" style="fill:#fff;opacity:0.6000000000000001"/><g style="opacity:0.6000000000000001"><path d="M314.08,257.29a7.38,7.38,0,1,1,5.21-12.6h0a7.38,7.38,0,0,1-5.21,12.6Zm0-12.76a5.38,5.38,0,1,0,3.8,1.58A5.38,5.38,0,0,0,314.08,244.53Z" style="fill:#fff"/><path d="M323.64,260.47a1,1,0,0,1-.71-.29l-5.05-5.05a1,1,0,0,1,1.42-1.42l5.05,5.06a1,1,0,0,1,0,1.41A1,1,0,0,1,323.64,260.47Z" style="fill:#fff"/></g></g></svg>
